<svg xmlns="http://www.w3.org/2000/svg"  viewBox="0 0 100 100" width="100px" height="100px"><path d="M 85.589844 13 A 2.0002 2.0002 0 0 0 85.15625 13.037109 C 72.085863 15.561502 61.140959 19.641842 52.0625 25.095703 C 46.831496 19.149217 37.376234 16.917446 29.078125 15.853516 C 24.596157 15.278867 20.391374 15.097549 17.306641 15.058594 C 14.221907 15.019634 12.255859 15.123047 12.255859 15.123047 A 2.0002 2.0002 0 0 0 10.367188 17.263672 L 10.796875 23.269531 L 6.1640625 22.498047 A 1.0001 1.0001 0 0 0 5.9648438 22.484375 A 1.0001 1.0001 0 0 0 5 23.503906 C 5.4528114 45.374096 7.1579369 65.653465 10.316406 84.099609 A 1.0001 1.0001 0 0 0 11.619141 84.878906 C 19.317369 82.320817 30.324584 81.129992 45.412109 81.734375 C 45.499089 82.234744 45.641892 82.836467 46.003906 83.460938 C 46.799236 84.832872 48.601532 86.122382 51.642578 85.990234 C 54.653244 85.859407 56.556562 84.650956 57.615234 83.435547 C 58.157946 82.812487 58.485831 82.190606 58.683594 81.716797 C 70.092154 80.849124 81.873085 80.501292 90.697266 81.740234 A 1.0001 1.0001 0 0 0 91.826172 80.900391 C 94.836545 61.322429 95.942899 42.07654 93.953125 23.378906 A 1.0001 1.0001 0 0 0 92.792969 22.498047 L 87.8125 23.326172 C 87.743212 20.540926 87.655389 17.740558 87.533203 14.914062 A 2.0002 2.0002 0 0 0 85.589844 13 z M 83.564453 17.513672 C 84.270767 36.228261 83.812763 54.040785 82.574219 71.257812 C 81.008801 71.163689 79.480346 71.115491 77.974609 71.09375 L 78.943359 69.638672 A 1.0001 1.0001 0 0 0 78.09375 68.072266 A 1.0001 1.0001 0 0 0 77.279297 68.529297 L 75.566406 71.099609 C 74.234863 71.11431 72.92312 71.156133 71.632812 71.226562 L 73.615234 68.533203 A 1.0001 1.0001 0 0 0 72.835938 66.929688 A 1.0001 1.0001 0 0 0 72.003906 67.347656 L 69.015625 71.410156 C 67.898613 71.504986 66.791639 71.616086 65.701172 71.751953 L 67.339844 68.470703 A 1.0001 1.0001 0 0 0 66.400391 67.011719 A 1.0001 1.0001 0 0 0 65.550781 67.576172 L 63.431641 71.818359 A 1.0001163 1.0001163 0 0 0 63.345703 72.074219 C 61.999254 72.280984 60.667091 72.513745 59.353516 72.78125 L 60.978516 69.53125 A 1.0001 1.0001 0 0 0 60.039062 68.072266 A 1.0001 1.0001 0 0 0 59.189453 68.636719 L 56.832031 73.347656 C 55.764653 73.599217 54.705745 73.872086 53.654297 74.162109 C 53.636971 60.747684 53.526353 46.939192 52.597656 29.791016 A 1.0001 1.0001 0 0 0 52.548828 29.523438 A 2.0002 2.0002 0 0 0 52.941406 29.253906 C 53.804956 28.712987 54.689552 28.18761 55.59375 27.673828 C 54.110621 35.537006 55.529141 42.363298 57.130859 48.941406 A 1.0001 1.0001 0 0 0 58.822266 49.396484 L 62.902344 45.15625 L 67.304688 47.251953 A 1.0001 1.0001 0 0 0 68.691406 46.060547 C 66.392067 38.439458 65.203369 30.703806 67.121094 22.291016 C 72.13323 20.384541 77.601249 18.78316 83.564453 17.513672 z M 16.71875 19.058594 C 17.7007 19.056036 18.902955 19.079895 20.236328 19.130859 L 24.21875 26.101562 A 1.0007567 1.0007567 0 1 0 25.957031 25.109375 L 22.617188 19.265625 C 23.628657 19.330398 24.635825 19.394922 25.779297 19.507812 L 28.472656 23.998047 A 1.0001 1.0001 0 1 0 30.1875 22.96875 L 28.279297 19.789062 C 28.378106 19.801423 28.468798 19.809501 28.568359 19.822266 C 37.118174 20.918468 46.41151 23.718267 49.951172 28.859375 A 2.0002 2.0002 0 0 0 50.654297 29.505859 A 1.0001 1.0001 0 0 0 50.601562 29.900391 C 51.531739 47.075929 51.635905 60.884758 51.652344 74.345703 C 49.445274 74.019054 47.268446 73.751001 45.121094 73.541016 L 46.535156 71.845703 A 1.0001 1.0001 0 0 0 45.755859 70.193359 A 1.0001 1.0001 0 0 0 44.998047 70.564453 L 42.697266 73.326172 C 41.649906 73.244561 40.603041 73.166206 39.570312 73.113281 L 40.830078 70.591797 A 1.0001 1.0001 0 0 0 39.890625 69.132812 A 1.0001 1.0001 0 0 0 39.041016 69.697266 L 37.371094 73.039062 C 36.055058 72.997498 34.750607 72.97794 33.458984 72.984375 L 35.490234 69.597656 A 1.0001 1.0001 0 0 0 34.664062 68.072266 A 1.0001 1.0001 0 0 0 33.775391 68.570312 L 31.111328 73.009766 C 29.687268 73.04965 28.278223 73.118499 26.884766 73.21875 L 28.158203 69.400391 A 1.0001 1.0001 0 0 0 27.220703 68.070312 A 1.0001 1.0001 0 0 0 26.259766 68.767578 L 24.708984 73.417969 C 22.588933 73.621364 20.494148 73.874379 18.447266 74.222656 L 18.429688 73.976562 L 23.673828 68.730469 A 1.0001 1.0001 0 0 0 22.947266 67.013672 A 1.0001 1.0001 0 0 0 22.259766 67.316406 L 18.240234 71.335938 L 18.005859 68.037109 L 20.492188 65.548828 A 1.0001 1.0001 0 0 0 19.765625 63.832031 A 1.0001 1.0001 0 0 0 19.078125 64.134766 L 17.816406 65.396484 L 14.507812 19.09375 C 15.078198 19.077578 15.820909 19.060933 16.71875 19.058594 z M 79.349609 21.371094 C 78.923469 21.318406 78.487766 21.519562 78.259766 21.914062 C 77.955766 22.440063 78.136109 23.114922 78.662109 23.419922 C 79.189109 23.723922 79.863969 23.542625 80.167969 23.015625 C 80.471969 22.488625 80.289672 21.815719 79.763672 21.511719 C 79.631922 21.435719 79.491656 21.388656 79.349609 21.371094 z M 64.890625 23.185547 C 63.455006 30.729117 64.398638 37.766208 66.242188 44.53125 L 63.111328 43.041016 A 1.0001 1.0001 0 0 0 61.960938 43.25 L 58.673828 46.666016 C 57.180241 40.27086 56.12354 33.868586 57.898438 26.433594 C 60.113395 25.274105 62.444143 24.190276 64.890625 23.185547 z M 72.486328 24.552734 C 72.060188 24.499813 71.624484 24.700453 71.396484 25.095703 C 71.092484 25.621703 71.274781 26.295609 71.800781 26.599609 C 72.327781 26.903609 73.000687 26.723266 73.304688 26.197266 C 73.608688 25.670266 73.428344 24.995406 72.902344 24.691406 C 72.770594 24.615406 72.628375 24.570375 72.486328 24.552734 z M 92.033203 24.652344 C 93.818735 42.502812 92.794366 60.903965 89.966797 79.666016 C 80.813734 78.516032 69.162225 78.873275 57.884766 79.751953 A 1.0001 1.0001 0 0 0 56.982422 80.548828 C 56.982422 80.548828 56.843749 81.277706 56.107422 82.123047 C 55.371095 82.968387 54.091974 83.882015 51.556641 83.992188 C 49.051687 84.101039 48.203546 83.268299 47.734375 82.458984 C 47.265204 81.64967 47.296875 80.802734 47.296875 80.802734 A 1.0001 1.0001 0 0 0 46.341797 79.75 C 31.304227 79.083054 20.259203 80.194916 12.128906 82.685547 C 9.1631803 64.988751 7.5223873 45.578388 7.0429688 24.671875 L 10.943359 25.322266 L 14.609375 76.650391 A 2.0002 2.0002 0 0 0 16.996094 78.46875 C 27.545031 76.362661 39.375712 76.437337 52.347656 78.482422 A 2.0007913 2.0007913 0 0 0 52.427734 78.492188 A 2.0002 2.0002 0 0 0 53.396484 78.378906 C 62.78171 75.626823 72.47171 74.364703 84.3125 75.320312 A 2.0002 2.0002 0 0 0 86.46875 73.476562 C 87.63435 57.991207 88.191181 42.021818 87.849609 25.349609 L 92.033203 24.652344 z M 80.328125 27.734375 C 79.901984 27.681687 79.466281 27.880891 79.238281 28.275391 C 78.934281 28.802391 79.113625 29.47725 79.640625 29.78125 C 80.167625 30.08525 80.842484 29.905906 81.146484 29.378906 C 81.450484 28.851906 81.268187 28.177047 80.742188 27.873047 C 80.610438 27.797047 80.470172 27.751938 80.328125 27.734375 z M 20.808594 30.966797 A 1.0001 1.0001 0 0 0 20.785156 32.964844 C 31.321792 33.6169 38.510545 36.095784 43.662109 39.1875 A 1.0001 1.0001 0 1 0 44.691406 37.472656 C 39.238971 34.200372 31.701569 31.636694 20.908203 30.96875 A 1.0001 1.0001 0 0 0 20.808594 30.966797 z M 23.277344 39.839844 C 22.476178 39.856527 21.67242 39.897704 20.869141 39.962891 A 1.0001 1.0001 0 1 0 21.03125 41.955078 C 27.125018 41.460568 33.364865 42.52571 37.367188 44.527344 A 1.0001165 1.0001165 0 1 0 38.261719 42.738281 C 34.901961 41.058006 30.413285 40.043472 25.667969 39.861328 C 24.877083 39.830973 24.078509 39.823161 23.277344 39.839844 z M 78.634766 49.841797 A 1.0001 1.0001 0 0 0 78.369141 49.884766 C 73.244308 51.390643 70.29805 51.799129 67.640625 52.277344 C 64.9832 52.755559 62.602151 53.321883 58.951172 55.082031 A 1.0001 1.0001 0 1 0 59.820312 56.882812 C 63.321334 55.194961 65.396066 54.713629 67.994141 54.246094 C 70.592215 53.778559 73.702427 53.34181 78.933594 51.804688 A 1.0001 1.0001 0 0 0 78.634766 49.841797 z M 24.072266 50.242188 C 23.124509 50.228869 22.203219 50.237185 21.322266 50.263672 A 1.0004582 1.0004582 0 1 0 21.382812 52.263672 C 28.171187 52.059569 37.669552 53.1963 42.601562 56.15625 A 1.0001 1.0001 0 1 0 43.630859 54.441406 C 38.667868 51.462862 30.706561 50.335419 24.072266 50.242188 z M 77.03125 57.478516 A 1.0001 1.0001 0 0 0 76.960938 57.482422 C 71.697571 57.956636 65.607434 59.408501 58.699219 61.775391 A 1.0002902 1.0002902 0 1 0 59.347656 63.667969 C 66.151441 61.336859 72.103991 59.928395 77.140625 59.474609 A 1.0001 1.0001 0 0 0 77.03125 57.478516 z M 24.609375 58.689453 C 23.590147 58.671923 22.587232 58.672012 21.611328 58.691406 A 1.0001907 1.0001907 0 1 0 21.650391 60.691406 C 29.241156 60.540557 38.780185 61.6404 43.804688 63.650391 A 1.00047 1.00047 0 1 0 44.548828 61.792969 C 39.666768 59.83996 31.743971 58.812165 24.609375 58.689453 z"/></svg>